# xmcd
#
# Track frame offsets:
#   150
#   18348
#   37194
#   57178
#   72931
#   90634
#   105246
#   117871
#   134166
#   148845
#   168376
#   183669
#   203486
#   219696
#   235691
#   253937
#   268004
#   283646
#   299983
#   316058
#
# Disc length: 4369 seconds
#
# Revision: 0
# Processed by: cddbd v1.5.1PL0 Copyright (c) Steve Scherf et al.
# Submitted via: Media_Universe 3.0
#
DISCID=3c110f14
DTITLE=John Michael Montgomery - Love Songs and Pictures
DYEAR=1900
DGENRE=Country
TTITLE0=I Love The Way You Love Me
TTITLE1=Hold On To Me
TTITLE2=I Swear
TTITLE3=Home To You
TTITLE4=I Can Love You Like That
TTITLE5=High School Heart
TTITLE6=Holding An Amazing Love
TTITLE7=Heaven Sent Me To You
TTITLE8=Oh How She Shines
TTITLE9=Long As I Live 
TTITLE10=Country Thang
TTITLE11=Love Changes Everything
TTITLE12=Till Nothing Comes Between Us
TTITLE13=Got You To Thank For That
TTITLE14=Pictures
TTITLE15=Love And Alcohol
TTITLE16=I Wanna Be There
TTITLE17=Believe In Me
TTITLE18=It Goes Like This
TTITLE19=Four-Wheel Drive
EXTD=
EXTT0=
EXTT1=
EXTT2=
EXTT3=
EXTT4=
EXTT5=
EXTT6=
EXTT7=
EXTT8=
EXTT9=
EXTT10=
EXTT11=
EXTT12=
EXTT13=
EXTT14=
EXTT15=
EXTT16=
EXTT17=
EXTT18=
EXTT19=
PLAYORDER=
